<svg version="1.1" xmlns="http://www.w3.org/2000/svg" viewBox="0 0 1248 948" width="1248" height="948"><!-- svg-source:excalidraw --><metadata></metadata><defs><style class="style-fonts">
      </style></defs><rect x="0" y="0" width="1248" height="948" fill="#ffffff"></rect><g stroke-linecap="round" transform="translate(24 24) rotate(0 600 450)"><path d="M32 0 C281.9 0, 531.8 0, 1168 0 C1189.33 0, 1200 10.67, 1200 32 C1200 304, 1200 575.99, 1200 868 C1200 889.33, 1189.33 900, 1168 900 C786.96 900, 405.92 900, 32 900 C10.67 900, 0 889.33, 0 868 C0 664.65, 0 461.3, 0 32 C0 10.67, 10.67 0, 32 0" stroke="none" stroke-width="0" fill="#fffdf7"></path><path d="M32 0 C259.21 0, 486.41 0, 1168 0 M32 0 C340.98 0, 649.97 0, 1168 0 M1168 0 C1189.33 0, 1200 10.67, 1200 32 M1168 0 C1189.33 0, 1200 10.67, 1200 32 M1200 32 C1200 213.83, 1200 395.66, 1200 868 M1200 32 C1200 357.64, 1200 683.28, 1200 868 M1200 868 C1200 889.33, 1189.33 900, 1168 900 M1200 868 C1200 889.33, 1189.33 900, 1168 900 M1168 900 C923 900, 677.99 900, 32 900 M1168 900 C922.83 900, 677.66 900, 32 900 M32 900 C10.67 900, 0 889.33, 0 868 M32 900 C10.67 900, 0 889.33, 0 868 M0 868 C0 628.23, 0 388.45, 0 32 M0 868 C0 636.92, 0 405.83, 0 32 M0 32 C0 10.67, 10.67 0, 32 0 M0 32 C0 10.67, 10.67 0, 32 0" stroke="transparent" stroke-width="2" fill="none"></path></g><g transform="translate(76 62) rotate(0 0 0)"><text x="0" y="29.954" font-family="Virgil, Segoe UI Emoji" font-size="34px" fill="#1e293b" text-anchor="start" style="white-space: pre;" direction="ltr" dominant-baseline="alphabetic">Session Telemetry：从权威事件流投影到 OpenTelemetry</text></g><g transform="translate(78 110) rotate(0 0 0)"><text x="0" y="16.739" font-family="Virgil, Segoe UI Emoji" font-size="19px" fill="#64748b" text-anchor="start" style="white-space: pre;" direction="ltr" dominant-baseline="alphabetic">观测是插件 seam，不是第二套运行状态</text></g><g stroke-linecap="round" transform="translate(74 229) rotate(0 122.5 72.5)"><path d="M32 0 C76.89 -1.94, 106.69 -0.06, 213 0 C238.62 -4.22, 245.66 16.2, 245 32 C241.45 58.73, 239.28 88.56, 245 113 C241.47 139.48, 237.79 141.84, 213 145 C153.06 143.63, 95.4 141.77, 32 145 C6.03 140.67, 0.56 138.05, 0 113 C-2.65 89.54, 2.51 78.59, 0 32 C3.42 9.49, 9.54 -0.74, 32 0" stroke="none" stroke-width="0" fill="#ede9fe"></path><path d="M32 0 C69.92 1.19, 103.76 1.59, 213 0 M32 0 C81.62 -0.14, 130.01 2.3, 213 0 M213 0 C231.74 1.06, 246.76 13.92, 245 32 M213 0 C234.73 1.12, 242.33 14.13, 245 32 M245 32 C247.33 46.12, 246.45 69.7, 245 113 M245 32 C242.8 62.92, 244.3 93.92, 245 113 M245 113 C246.19 131.14, 235.3 141.56, 213 145 M245 113 C241.62 134.46, 236.2 146.62, 213 145 M213 145 C176.07 148.15, 136.99 148.2, 32 145 M213 145 C173.53 149.84, 134.4 148.55, 32 145 M32 145 C6.89 144.43, -0.35 135.39, 0 113 M32 145 C14.33 144.96, 4.32 134.53, 0 113 M0 113 C-2.62 89.21, 1.35 63.48, 0 32 M0 113 C-1.35 91.89, 1.08 66.88, 0 32 M0 32 C0.87 14.66, 7.56 -2.62, 32 0 M0 32 C-1.24 6.52, 12.69 4.54, 32 0" stroke="#7c3aed" stroke-width="2" fill="none"></path></g><g transform="translate(84 239) rotate(0 112.5 62.5)"><text x="112.5" y="37.138" font-family="Virgil, Segoe UI Emoji" font-size="23px" fill="#1e293b" text-anchor="middle" style="white-space: pre;" direction="ltr" dominant-baseline="alphabetic">Session</text><text x="112.5" y="99.638" font-family="Virgil, Segoe UI Emoji" font-size="23px" fill="#1e293b" text-anchor="middle" style="white-space: pre;" direction="ltr" dominant-baseline="alphabetic">Event Log</text></g><g stroke-linecap="round" transform="translate(389 204) rotate(0 135 97.5)"><path d="M32 0 C81.83 -2.05, 118.23 -0.38, 238 0 C263.62 -4.22, 270.66 16.2, 270 32 C265.79 74.99, 263.62 121.1, 270 163 C266.47 189.48, 262.79 191.84, 238 195 C169.59 193.5, 103.21 191.84, 32 195 C6.03 190.67, 0.56 188.05, 0 163 C-2.16 127.38, 3 104.27, 0 32 C3.42 9.49, 9.54 -0.74, 32 0" stroke="none" stroke-width="0" fill="#dbeafe"></path><path d="M32 0 C74.73 0.97, 113.83 1.33, 238 0 M32 0 C88.38 0.06, 143.66 2.22, 238 0 M238 0 C256.74 1.06, 271.76 13.92, 270 32 M238 0 C259.73 1.12, 267.33 14.13, 270 32 M270 32 C271.86 56.99, 270.99 91.45, 270 163 M270 32 C266.98 82.4, 268.48 132.87, 270 163 M270 163 C271.19 181.14, 260.3 191.56, 238 195 M270 163 C266.62 184.46, 261.2 196.62, 238 195 M238 195 C195.45 198.25, 150.98 198.28, 32 195 M238 195 C193.18 199.72, 148.66 198.57, 32 195 M32 195 C6.89 194.43, -0.35 185.39, 0 163 M32 195 C14.33 194.96, 4.32 184.53, 0 163 M0 163 C-3.34 124.87, 0.62 84.8, 0 32 M0 163 C-1.44 128.06, 0.99 89.23, 0 32 M0 32 C0.87 14.66, 7.56 -2.62, 32 0 M0 32 C-1.24 6.52, 12.69 4.54, 32 0" stroke="#2563eb" stroke-width="2" fill="none"></path></g><g transform="translate(399 214) rotate(0 125 87.5)"><text x="125" y="27.251" font-family="Virgil, Segoe UI Emoji" font-size="21px" fill="#1e293b" text-anchor="middle" style="white-space: pre;" direction="ltr" dominant-baseline="alphabetic">Telemetry Seam</text><text x="125" y="71.001" font-family="Virgil, Segoe UI Emoji" font-size="21px" fill="#1e293b" text-anchor="middle" style="white-space: pre;" direction="ltr" dominant-baseline="alphabetic"></text><text x="125" y="114.751" font-family="Virgil, Segoe UI Emoji" font-size="21px" fill="#1e293b" text-anchor="middle" style="white-space: pre;" direction="ltr" dominant-baseline="alphabetic">capture · projection</text><text x="125" y="158.501" font-family="Virgil, Segoe UI Emoji" font-size="21px" fill="#1e293b" text-anchor="middle" style="white-space: pre;" direction="ltr" dominant-baseline="alphabetic">deep copy</text></g><g stroke-linecap="round" transform="translate(729 204) rotate(0 110 97.5)"><path d="M32 0 C71.39 -1.57, 95.69 0.31, 188 0 C213.62 -4.22, 220.66 16.2, 220 32 C215.79 74.99, 213.62 121.1, 220 163 C216.47 189.48, 212.79 191.84, 188 195 C136.45 193.96, 87.17 192.09, 32 195 C6.03 190.67, 0.56 188.05, 0 163 C-2.16 127.38, 3 104.27, 0 32 C3.42 9.49, 9.54 -0.74, 32 0" stroke="none" stroke-width="0" fill="#fef3c7"></path><path d="M32 0 C64.92 1.3, 93.76 1.69, 188 0 M32 0 C74.82 -0.33, 116.41 2.1, 188 0 M188 0 C206.74 1.06, 221.76 13.92, 220 32 M188 0 C209.73 1.12, 217.33 14.13, 220 32 M220 32 C221.86 56.99, 220.99 91.45, 220 163 M220 32 C216.98 82.4, 218.48 132.87, 220 163 M220 163 C221.19 181.14, 210.3 191.56, 188 195 M220 163 C216.62 184.46, 211.2 196.62, 188 195 M188 195 C156.46 197.66, 122.77 197.7, 32 195 M188 195 C153.93 199.38, 120.19 198.09, 32 195 M32 195 C6.89 194.43, -0.35 185.39, 0 163 M32 195 C14.33 194.96, 4.32 184.53, 0 163 M0 163 C-3.34 124.87, 0.62 84.8, 0 32 M0 163 C-1.44 128.06, 0.99 89.23, 0 32 M0 32 C0.87 14.66, 7.56 -2.62, 32 0 M0 32 C-1.24 6.52, 12.69 4.54, 32 0" stroke="#d97706" stroke-width="2" fill="none"></path></g><g transform="translate(739 214) rotate(0 100 87.5)"><text x="100" y="22.619999999999997" font-family="Virgil, Segoe UI Emoji" font-size="20px" fill="#1e293b" text-anchor="middle" style="white-space: pre;" direction="ltr" dominant-baseline="alphabetic">Mode Gate</text><text x="100" y="57.62" font-family="Virgil, Segoe UI Emoji" font-size="20px" fill="#1e293b" text-anchor="middle" style="white-space: pre;" direction="ltr" dominant-baseline="alphabetic"></text><text x="100" y="92.62" font-family="Virgil, Segoe UI Emoji" font-size="20px" fill="#1e293b" text-anchor="middle" style="white-space: pre;" direction="ltr" dominant-baseline="alphabetic">FULL</text><text x="100" y="127.62" font-family="Virgil, Segoe UI Emoji" font-size="20px" fill="#1e293b" text-anchor="middle" style="white-space: pre;" direction="ltr" dominant-baseline="alphabetic">FEEDBACK_ONLY</text><text x="100" y="162.62" font-family="Virgil, Segoe UI Emoji" font-size="20px" fill="#1e293b" text-anchor="middle" style="white-space: pre;" direction="ltr" dominant-baseline="alphabetic">DISABLED</text></g><g stroke-linecap="round" transform="translate(1019 229) rotate(0 77.5 72.5)"><path d="M32 0 C57.09 -0.62, 67.09 1.26, 123 0 C148.62 -4.22, 155.66 16.2, 155 32 C151.45 58.73, 149.28 88.56, 155 113 C151.47 139.48, 147.79 141.84, 123 145 C93.25 144.8, 65.78 142.93, 32 145 C6.03 140.67, 0.56 138.05, 0 113 C-2.65 89.54, 2.51 78.59, 0 32 C3.42 9.49, 9.54 -0.74, 32 0" stroke="none" stroke-width="0" fill="#d1fae5"></path><path d="M32 0 C51.91 1.56, 67.76 1.96, 123 0 M32 0 C57.14 -0.85, 81.05 1.59, 123 0 M123 0 C141.74 1.06, 156.76 13.92, 155 32 M123 0 C144.73 1.12, 152.33 14.13, 155 32 M155 32 C157.33 46.12, 156.45 69.7, 155 113 M155 32 C152.8 62.92, 154.3 93.92, 155 113 M155 113 C156.19 131.14, 145.3 141.56, 123 145 M155 113 C151.62 134.46, 146.2 146.62, 123 145 M123 145 C105.48 146.37, 85.81 146.41, 32 145 M123 145 C102.96 148.19, 83.25 146.9, 32 145 M32 145 C6.89 144.43, -0.35 135.39, 0 113 M32 145 C14.33 144.96, 4.32 134.53, 0 113 M0 113 C-2.62 89.21, 1.35 63.48, 0 32 M0 113 C-1.35 91.89, 1.08 66.88, 0 32 M0 32 C0.87 14.66, 7.56 -2.62, 32 0 M0 32 C-1.24 6.52, 12.69 4.54, 32 0" stroke="#059669" stroke-width="2" fill="none"></path></g><g transform="translate(1029 239) rotate(0 67.5 62.5)"><text x="67.5" y="36.626000000000005" font-family="Virgil, Segoe UI Emoji" font-size="21px" fill="#1e293b" text-anchor="middle" style="white-space: pre;" direction="ltr" dominant-baseline="alphabetic">OTel</text><text x="67.5" y="99.126" font-family="Virgil, Segoe UI Emoji" font-size="21px" fill="#1e293b" text-anchor="middle" style="white-space: pre;" direction="ltr" dominant-baseline="alphabetic">Collector</text></g><g stroke-linecap="round"><g transform="translate(319 301) rotate(0 35 0)"><path d="M1.71 1.93 C13.36 2.04, 26.88 -3.74, 68.41 0.78 M-1.3 0.53 C16.37 1.02, 31.16 -0.12, 68.84 1.51" stroke="#7c3aed" stroke-width="2" fill="none"></path></g><g transform="translate(319 301) rotate(0 35 0)"><path d="M45.96 10.33 C49.6 8.91, 54.1 4.44, 68.05 1.9 M44.46 9.63 C50.82 8.34, 55.72 6.03, 68.26 2.26" stroke="#7c3aed" stroke-width="2" fill="none"></path></g><g transform="translate(319 301) rotate(0 35 0)"><path d="M46.46 -6.77 C49.86 -4.77, 54.26 -5.81, 68.05 1.9 M44.96 -7.46 C51.17 -4.97, 55.96 -3.5, 68.26 2.26" stroke="#7c3aed" stroke-width="2" fill="none"></path></g></g><mask></mask><g stroke-linecap="round"><g transform="translate(659 301) rotate(0 35 0)"><path d="M1.71 1.93 C13.36 2.04, 26.88 -3.74, 68.41 0.78 M-1.3 0.53 C16.37 1.02, 31.16 -0.12, 68.84 1.51" stroke="#2563eb" stroke-width="2" fill="none"></path></g><g transform="translate(659 301) rotate(0 35 0)"><path d="M45.96 10.33 C49.6 8.91, 54.1 4.44, 68.05 1.9 M44.46 9.63 C50.82 8.34, 55.72 6.03, 68.26 2.26" stroke="#2563eb" stroke-width="2" fill="none"></path></g><g transform="translate(659 301) rotate(0 35 0)"><path d="M46.46 -6.77 C49.86 -4.77, 54.26 -5.81, 68.05 1.9 M44.96 -7.46 C51.17 -4.97, 55.96 -3.5, 68.26 2.26" stroke="#2563eb" stroke-width="2" fill="none"></path></g></g><mask></mask><g stroke-linecap="round"><g transform="translate(949 301) rotate(0 35 0)"><path d="M1.71 1.93 C13.36 2.04, 26.88 -3.74, 68.41 0.78 M-1.3 0.53 C16.37 1.02, 31.16 -0.12, 68.84 1.51" stroke="#059669" stroke-width="2" fill="none"></path></g><g transform="translate(949 301) rotate(0 35 0)"><path d="M45.96 10.33 C49.6 8.91, 54.1 4.44, 68.05 1.9 M44.46 9.63 C50.82 8.34, 55.72 6.03, 68.26 2.26" stroke="#059669" stroke-width="2" fill="none"></path></g><g transform="translate(949 301) rotate(0 35 0)"><path d="M46.46 -6.77 C49.86 -4.77, 54.26 -5.81, 68.05 1.9 M44.96 -7.46 C51.17 -4.97, 55.96 -3.5, 68.26 2.26" stroke="#059669" stroke-width="2" fill="none"></path></g></g><mask></mask><g stroke-opacity="0.45" fill-opacity="0.45" stroke-linecap="round" transform="translate(79 489) rotate(0 545 127.5)"><path d="M32 0 C254.04 -7.46, 475.3 -7.45, 1058 0 C1076.3 -1.33, 1093.31 9.94, 1090 32 C1085.79 103.28, 1088.87 176.55, 1090 223 C1092.87 244.31, 1082.71 255.15, 1058 255 C763.21 254.33, 470.38 253.44, 32 255 C9.82 255.32, 1.07 242.16, 0 223 C-1.33 157.11, -4.91 81.69, 0 32 C-0.97 7.42, 12.25 3.56, 32 0" stroke="none" stroke-width="0" fill="#cffafe"></path><path d="M32 0 C237.55 -0.45, 442.28 -0.37, 1058 0 M1058 0 C1078.77 -1.73, 1089.21 11.06, 1090 32 M1090 32 C1088.27 74.81, 1090.44 118.18, 1090 223 M1090 223 C1090.17 244.82, 1078.17 256.51, 1058 255 M1058 255 C835.46 255.24, 612.12 256.43, 32 255 M32 255 C12.46 253.36, 1.39 243.46, 0 223 M0 223 C-0.01 170.14, -0.12 118.75, 0 32 M0 32 C-1.47 10.72, 11.48 0.7, 32 0" stroke="#0891b2" stroke-width="2.5" fill="none" stroke-dasharray="8 10"></path></g><g transform="translate(114 519) rotate(0 0 0)"><text x="0" y="22.025000000000002" font-family="Virgil, Segoe UI Emoji" font-size="25px" fill="#0891b2" text-anchor="start" style="white-space: pre;" direction="ltr" dominant-baseline="alphabetic">工程边界</text></g><g stroke-linecap="round" transform="translate(114 579) rotate(0 142.5 52.5)"><path d="M26.25 0 C81.69 -2.28, 124.36 -0.69, 258.75 0 C280.54 -4.22, 285.66 14.28, 285 26.25 C281.83 43.7, 279.66 64.27, 285 78.75 C281.47 101.4, 279.71 101.84, 258.75 105 C181.42 103.28, 106.01 101.7, 26.25 105 C4.11 100.67, 0.56 99.97, 0 78.75 C-2.93 62.23, 2.23 58.2, 0 26.25 C3.42 7.57, 7.62 -0.74, 26.25 0" stroke="none" stroke-width="0" fill="#ffffff"></path><path d="M26.25 0 C74.2 0.83, 118.71 1.17, 258.75 0 M26.25 0 C89.82 0.23, 152.34 2.29, 258.75 0 M258.75 0 C273.66 1.06, 286.76 12, 285 26.25 M258.75 0 C276.65 1.12, 282.33 12.21, 285 26.25 M285 26.25 C287.59 34.17, 286.71 51.55, 285 78.75 M285 26.25 C283.27 46.07, 284.77 65.97, 285 78.75 M285 78.75 C286.19 93.05, 277.22 101.56, 258.75 105 M285 78.75 C281.62 96.38, 278.12 106.62, 258.75 105 M258.75 105 C210.39 108.53, 160.21 108.56, 26.25 105 M258.75 105 C208.23 109.9, 157.99 108.8, 26.25 105 M26.25 105 C4.98 104.43, -0.35 97.31, 0 78.75 M26.25 105 C12.41 104.96, 4.32 96.44, 0 78.75 M0 78.75 C-2.2 63.13, 1.76 45.58, 0 26.25 M0 78.75 C-1.3 65.51, 1.14 48.38, 0 26.25 M0 26.25 C0.87 12.74, 5.65 -2.62, 26.25 0 M0 26.25 C-1.24 4.61, 10.78 4.54, 26.25 0" stroke="#0891b2" stroke-width="2" fill="none"></path></g><g transform="translate(124 589) rotate(0 132.5 42.5)"><text x="132.5" y="26.369999999999997" font-family="Virgil, Segoe UI Emoji" font-size="20px" fill="#1e293b" text-anchor="middle" style="white-space: pre;" direction="ltr" dominant-baseline="alphabetic">不影响模型调用</text><text x="132.5" y="68.87" font-family="Virgil, Segoe UI Emoji" font-size="20px" fill="#1e293b" text-anchor="middle" style="white-space: pre;" direction="ltr" dominant-baseline="alphabetic">不改 Session 真相</text></g><g stroke-linecap="round" transform="translate(479 579) rotate(0 142.5 52.5)"><path d="M26.25 0 C81.69 -2.28, 124.36 -0.69, 258.75 0 C280.54 -4.22, 285.66 14.28, 285 26.25 C281.83 43.7, 279.66 64.27, 285 78.75 C281.47 101.4, 279.71 101.84, 258.75 105 C181.42 103.28, 106.01 101.7, 26.25 105 C4.11 100.67, 0.56 99.97, 0 78.75 C-2.93 62.23, 2.23 58.2, 0 26.25 C3.42 7.57, 7.62 -0.74, 26.25 0" stroke="none" stroke-width="0" fill="#ffffff"></path><path d="M26.25 0 C74.2 0.83, 118.71 1.17, 258.75 0 M26.25 0 C89.82 0.23, 152.34 2.29, 258.75 0 M258.75 0 C273.66 1.06, 286.76 12, 285 26.25 M258.75 0 C276.65 1.12, 282.33 12.21, 285 26.25 M285 26.25 C287.59 34.17, 286.71 51.55, 285 78.75 M285 26.25 C283.27 46.07, 284.77 65.97, 285 78.75 M285 78.75 C286.19 93.05, 277.22 101.56, 258.75 105 M285 78.75 C281.62 96.38, 278.12 106.62, 258.75 105 M258.75 105 C210.39 108.53, 160.21 108.56, 26.25 105 M258.75 105 C208.23 109.9, 157.99 108.8, 26.25 105 M26.25 105 C4.98 104.43, -0.35 97.31, 0 78.75 M26.25 105 C12.41 104.96, 4.32 96.44, 0 78.75 M0 78.75 C-2.2 63.13, 1.76 45.58, 0 26.25 M0 78.75 C-1.3 65.51, 1.14 48.38, 0 26.25 M0 26.25 C0.87 12.74, 5.65 -2.62, 26.25 0 M0 26.25 C-1.24 4.61, 10.78 4.54, 26.25 0" stroke="#e11d48" stroke-width="2" fill="none"></path></g><g transform="translate(489 589) rotate(0 132.5 42.5)"><text x="132.5" y="26.369999999999997" font-family="Virgil, Segoe UI Emoji" font-size="20px" fill="#1e293b" text-anchor="middle" style="white-space: pre;" direction="ltr" dominant-baseline="alphabetic">默认无内容脱敏</text><text x="132.5" y="68.87" font-family="Virgil, Segoe UI Emoji" font-size="20px" fill="#1e293b" text-anchor="middle" style="white-space: pre;" direction="ltr" dominant-baseline="alphabetic">敏感字段需自处理</text></g><g stroke-linecap="round" transform="translate(844 579) rotate(0 142.5 52.5)"><path d="M26.25 0 C81.69 -2.28, 124.36 -0.69, 258.75 0 C280.54 -4.22, 285.66 14.28, 285 26.25 C281.83 43.7, 279.66 64.27, 285 78.75 C281.47 101.4, 279.71 101.84, 258.75 105 C181.42 103.28, 106.01 101.7, 26.25 105 C4.11 100.67, 0.56 99.97, 0 78.75 C-2.93 62.23, 2.23 58.2, 0 26.25 C3.42 7.57, 7.62 -0.74, 26.25 0" stroke="none" stroke-width="0" fill="#ffffff"></path><path d="M26.25 0 C74.2 0.83, 118.71 1.17, 258.75 0 M26.25 0 C89.82 0.23, 152.34 2.29, 258.75 0 M258.75 0 C273.66 1.06, 286.76 12, 285 26.25 M258.75 0 C276.65 1.12, 282.33 12.21, 285 26.25 M285 26.25 C287.59 34.17, 286.71 51.55, 285 78.75 M285 26.25 C283.27 46.07, 284.77 65.97, 285 78.75 M285 78.75 C286.19 93.05, 277.22 101.56, 258.75 105 M285 78.75 C281.62 96.38, 278.12 106.62, 258.75 105 M258.75 105 C210.39 108.53, 160.21 108.56, 26.25 105 M258.75 105 C208.23 109.9, 157.99 108.8, 26.25 105 M26.25 105 C4.98 104.43, -0.35 97.31, 0 78.75 M26.25 105 C12.41 104.96, 4.32 96.44, 0 78.75 M0 78.75 C-2.2 63.13, 1.76 45.58, 0 26.25 M0 78.75 C-1.3 65.51, 1.14 48.38, 0 26.25 M0 26.25 C0.87 12.74, 5.65 -2.62, 26.25 0 M0 26.25 C-1.24 4.61, 10.78 4.54, 26.25 0" stroke="#d97706" stroke-width="2" fill="none"></path></g><g transform="translate(854 589) rotate(0 132.5 42.5)"><text x="132.5" y="26.369999999999997" font-family="Virgil, Segoe UI Emoji" font-size="20px" fill="#1e293b" text-anchor="middle" style="white-space: pre;" direction="ltr" dominant-baseline="alphabetic">best effort</text><text x="132.5" y="68.87" font-family="Virgil, Segoe UI Emoji" font-size="20px" fill="#1e293b" text-anchor="middle" style="white-space: pre;" direction="ltr" dominant-baseline="alphabetic">at-most-once</text></g><g transform="translate(354 814) rotate(0 0 0)"><text x="0" y="19.381999999999998" font-family="Virgil, Segoe UI Emoji" font-size="22px" fill="#64748b" text-anchor="start" style="white-space: pre;" direction="ltr" dominant-baseline="alphabetic">Telemetry 故障应被隔离，不能拖垮 Agent Run</text></g></svg>